<?xml version="1.0" standalone="no"?>
<!DOCTYPE svg PUBLIC "-//W3C//DTD SVG 20010904//EN"
 "http://www.w3.org/TR/2001/REC-SVG-20010904/DTD/svg10.dtd">
<svg version="1.0" xmlns="http://www.w3.org/2000/svg"
 width="90.000000pt" height="90.000000pt" viewBox="0 0 90.000000 90.000000"
 preserveAspectRatio="xMidYMid meet">
<metadata>
Created by potrace 1.14, written by Peter Selinger 2001-2017
</metadata>
<g transform="translate(0.000000,90.000000) scale(0.100000,-0.100000)"
fill="#000000" stroke="none">
<path d="M406 814 c-27 -27 -25 -82 5 -130 24 -39 40 -36 62 12 23 47 21 86
-3 112 -25 26 -43 28 -64 6z"/>
<path d="M672 727 c-32 -18 -48 -46 -56 -94 -6 -39 -4 -43 14 -43 30 0 96 36
105 57 16 38 13 63 -8 78 -25 18 -26 18 -55 2z"/>
<path d="M146 704 c-21 -20 -12 -62 20 -91 23 -21 89 -41 100 -31 2 3 0 25 -5
49 -16 71 -78 111 -115 73z"/>
<path d="M403 549 c-25 -9 -43 -38 -43 -68 0 -26 37 -61 65 -61 31 0 65 36 65
69 0 44 -46 75 -87 60z"/>
<path d="M632 489 c-91 -84 -216 -106 -344 -61 l-58 20 50 -49 c106 -105 116
-197 33 -308 l-26 -33 24 12 c135 71 274 229 350 395 17 37 29 68 27 70 -2 2
-27 -19 -56 -46z"/>
<path d="M770 483 c-39 -28 -60 -47 -60 -55 0 -12 69 -38 100 -38 38 0 80 35
75 62 -6 29 -14 35 -55 43 -25 4 -42 1 -60 -12z"/>
<path d="M39 466 c-53 -26 -25 -96 39 -96 35 0 102 26 102 40 0 11 -59 60 -73
61 -7 0 -19 2 -28 4 -9 1 -27 -2 -40 -9z"/>
<path d="M512 205 l-24 -25 19 -47 c10 -27 18 -51 18 -55 0 -5 4 -9 9 -10 22
-6 29 110 9 146 -7 12 -12 11 -31 -9z"/>
</g>
</svg>
