<svg width="136" height="633" viewBox="0 0 136 633" fill="none" xmlns="http://www.w3.org/2000/svg">
<path d="M-113.104 51.0065C-10.2198 40.3054 81.7735 114.283 92.377 216.23C102.98 318.176 28.1805 409.502 -74.704 420.203C-177.588 430.904 -269.582 356.927 -280.185 254.98C-290.789 153.033 -215.989 61.7075 -113.104 51.0065Z" stroke="#351E76" stroke-opacity="0.18"/>
<path d="M-133.528 45.746C-18.4276 33.7744 84.4891 116.536 96.3517 230.588C108.214 344.64 24.5323 446.81 -90.5679 458.781C-205.668 470.753 -308.585 387.992 -320.447 273.939C-332.31 159.887 -248.628 57.7176 -133.528 45.746Z" stroke="#351E76" stroke-opacity="0.18"/>
<path d="M-150.262 40.0997C-24.3032 26.9988 88.3233 117.568 101.305 242.38C114.287 367.193 22.7097 479.001 -103.249 492.102C-229.207 505.203 -341.834 414.635 -354.816 289.822C-367.798 165.009 -276.22 53.2007 -150.262 40.0997Z" stroke="#351E76" stroke-opacity="0.18"/>
<path d="M-174.115 37.6582C-38.6552 23.569 82.4674 120.97 96.4285 255.198C110.39 389.426 11.9041 509.668 -123.556 523.757C-259.015 537.847 -380.138 440.446 -394.099 306.218C-408.06 171.989 -309.575 51.7474 -174.115 37.6582Z" stroke="#351E76" stroke-opacity="0.18"/>
<path d="M-197.354 35.1526C-52.7322 20.1105 76.583 124.099 91.4885 267.406C106.394 410.714 1.24683 539.089 -143.375 554.131C-287.996 569.173 -417.311 465.185 -432.217 321.877C-447.122 178.569 -341.975 50.1947 -197.354 35.1526Z" stroke="#351E76" stroke-opacity="0.18"/>
<path d="M-223.793 31.7466C-64.9201 15.2222 77.1392 129.458 93.5137 286.889C109.888 444.32 -5.62145 585.345 -164.495 601.87C-323.368 618.394 -465.427 504.158 -481.801 346.727C-498.176 189.297 -382.666 48.271 -223.793 31.7466Z" stroke="#351E76" stroke-opacity="0.18"/>
</svg>
